<?xml version="1.0" encoding="UTF-8" standalone="no"?>
<svg
   id="a"
   viewBox="0 0 126.18472 45.34"
   version="1.1"
   width="126.18472"
   height="45.34"
   xmlns="http://www.w3.org/2000/svg"
   xmlns:svg="http://www.w3.org/2000/svg">
  <defs
     id="defs1">
    <style
       id="style1">.b{fill:#3ca1d5;}</style>
  </defs>
  <g
     id="g31"
     transform="translate(-34.03528,-34.02)">
    <path
       class="b"
       d="m 47.86,74.72 c 1.16,-0.08 2.29,-0.33 3.41,-0.63 0.73,-0.19 2.15,-0.5 2.65,-0.62 h 0.03 c 0,0 0,-0.01 0,-0.01 0,-0.01 -0.01,-0.03 -0.03,-0.06 0,0 -0.04,-0.02 -0.05,-0.02 -0.63,-0.16 -2.39,-0.68 -3.61,-1.84 -0.78,-0.72 -1.51,-1.5 -2.29,-2.22 -0.63,-0.58 -2.01,-1.76 -2.11,-1.79 -0.01,0.01 -0.02,0.07 -0.01,0.07 0.2,0.27 0.93,1.93 1.38,2.78 0.64,1.22 1.5,2.2 2.76,2.66 0,0 0.02,0 0.02,0.01 0.03,0.03 -0.01,0.07 -0.1,0.05 H 49.89 C 48.48,72.87 47.1,72.81 45.67,72.73 44.59,72.67 43.47,72.6 42.43,72.25 41.74,72.01 41.2,71.8 40.37,71.16 c 0,0 -0.05,-0.02 -0.1,0 v 0 c 0.94,1.42 2.58,2.59 3.91,3.08 1.17,0.44 2.43,0.57 3.69,0.48 z"
       id="path1" />
    <path
       class="b"
       d="m 46.77,71.83 c 0.08,0.02 0.16,0.03 0.28,0.05 v 0 c 0,0 -0.01,-0.06 -0.01,-0.06 0,0 -0.06,-0.07 -0.08,-0.08 -0.86,-0.85 -1.39,-1.9 -1.8,-3.02 C 44.86,67.9 44.58,67.06 44.3,66.24 43.89,65.07 43.02,63.2 41.96,62 h -0.01 c 0,0 -0.03,0.05 -0.02,0.08 0.35,1.05 0.37,2.22 0.52,3.3 0.43,3.11 1.86,4.57 1.91,4.63 0.04,0.04 0,0.09 -0.03,0.06 -0.06,-0.05 -0.12,-0.09 -0.18,-0.14 -0.97,-0.81 -1.96,-1.29 -3.1,-1.82 -0.92,-0.43 -1.69,-0.8 -2.53,-1.38 -1.72,-1.18 -2.42,-2.1 -2.46,-2.15 -0.03,-0.02 -0.06,-0.02 -0.09,-0.01 0.12,0.42 0.29,0.8 0.48,1.19 0.72,1.49 1.82,2.65 3.12,3.65 1.3,1 2.7,1.57 4.31,1.84 0.96,0.16 1.92,0.39 2.87,0.59 z"
       id="path2" />
    <path
       class="b"
       d="m 38.83,65.45 c 0.97,0.64 2.43,1.51 2.94,1.84 v 0 c 0,0 0.04,-0.06 0.02,-0.09 v -0.02 c -0.65,-1.27 -0.74,-2.65 -0.86,-4.05 -0.1,-1.21 0.12,-2.72 0.06,-3.9 -0.05,-0.97 -0.36,-2.02 -0.61,-2.86 -0.03,-0.11 -0.05,-0.13 -0.05,-0.14 -0.02,0 -0.05,0.05 -0.06,0.06 0,0 0,0 0,0.01 -0.13,1.44 -0.64,2.73 -0.83,3.9 -0.22,1.38 -0.06,3.16 0.3,4.17 0.02,0.06 -0.04,0.07 -0.06,0.04 -0.76,-1.16 -2.4,-2.83 -3.26,-3.71 -1.09,-1.15 -1.84,-2.21 -2.25,-3.53 0,0 -0.06,-0.05 -0.07,-0.04 0,0.01 -0.01,0.12 -0.01,0.19 -0.03,1.84 0.57,3.65 1.61,5.16 0.83,1.2 1.9,2.16 3.1,2.96 z"
       id="path3" />
    <path
       class="b"
       d="m 38.32,61.12 v 0 c 0,0 0.04,-0.04 0.03,-0.15 -0.13,-1.33 0.08,-2.4 0.52,-3.66 0.65,-1.88 1.28,-3.81 1.49,-5.79 0.03,-0.26 0.05,-0.67 0.05,-0.79 -0.02,0 -0.07,0.03 -0.07,0.03 -0.28,0.7 -0.94,1.75 -1.32,2.35 -0.73,1.15 -1.56,2.29 -1.66,3.67 -0.03,0.35 -0.02,0.81 0.02,1.18 0,0 -0.01,0.04 -0.04,0.04 0,0 -0.02,0 -0.02,-0.03 -0.09,-0.34 -0.19,-0.74 -0.32,-1.17 -0.67,-2.28 -2.28,-3.71 -2.27,-7.04 0,-0.01 -0.04,-0.07 -0.07,-0.07 -0.04,0.05 -0.14,0.29 -0.23,0.57 -1.44,4.63 1.48,7.95 2.06,8.66 0.53,0.65 1.4,1.55 1.85,2.19 z"
       id="path4" />
    <path
       class="b"
       d="m 36.23,51.92 c 0.31,0.89 0.73,2.21 0.82,2.55 0,0.01 0.06,-0.01 0.07,-0.04 0.25,-0.95 1.28,-2.8 1.93,-3.67 0.05,-0.06 0.09,-0.12 0.14,-0.19 0.64,-0.85 1.33,-1.68 1.76,-2.67 0.3,-0.68 0.75,-2.15 0.78,-2.29 0,0 -0.1,-0.03 -0.14,0.04 -0.5,0.75 -1.25,1.52 -1.77,1.98 -0.85,0.69 -1.51,1.22 -2.03,2.24 -0.05,0.11 -0.12,0.26 -0.19,0.42 -0.16,0.37 -0.31,0.8 -0.31,0.81 0,0.03 -0.05,0.07 -0.07,0.02 -0.01,-0.05 0.09,-1.25 0.09,-1.41 0.05,-0.98 -0.14,-1.93 -0.27,-2.9 -0.16,-1.21 -0.28,-2.22 0.06,-3.65 0.02,-0.1 0.05,-0.19 0.08,-0.29 0.02,-0.07 0.04,-0.13 0.06,-0.2 0,-0.01 -0.01,-0.07 -0.04,-0.08 -1.28,1.55 -2,4.4 -1.69,6.59 0.11,0.77 0.66,2.56 0.72,2.74 z"
       id="path5" />
    <path
       class="b"
       d="m 38.08,47.1 c 0,0.32 -0.02,0.78 -0.02,0.79 0,0.02 0.05,-0.01 0.06,-0.02 0.33,-0.41 1.14,-1.43 2.33,-2.41 0.66,-0.55 1.36,-1.07 1.98,-1.67 0.86,-0.82 1.36,-2.21 1.51,-2.96 0.01,-0.07 0.02,-0.12 0.02,-0.14 -0.02,0 -0.07,0.01 -0.08,0.02 -0.09,0.11 -0.18,0.23 -0.26,0.35 -0.5,0.68 -1.03,1.09 -1.72,1.55 -1.17,0.74 -1.98,1.29 -2.64,2.19 l -0.02,0.02 c -0.03,0.05 -0.09,0.03 -0.07,-0.03 0.2,-0.65 0.29,-1.05 0.43,-1.62 0.23,-0.94 0.33,-2.18 0.68,-3.01 0.22,-0.52 0.54,-0.97 0.95,-1.37 0,0 0,0 0,-0.01 0.02,-0.05 0,-0.09 0,-0.09 -0.06,0.01 -0.16,0.05 -0.23,0.09 -1.22,0.61 -2.04,1.59 -2.59,2.82 -0.34,0.76 -0.43,1.56 -0.43,2.36 0,0.27 0,0.54 0.02,0.81 0.03,0.67 0.06,1.63 0.06,2.36 z"
       id="path6" />
    <path
       class="b"
       d="m 40.6,42.44 c 0,0 0.02,0 0.03,0 0,0 0,0 0.01,-0.01 0.33,-0.26 1.66,-1.29 2.12,-1.75 0.69,-0.6 1.2,-1.36 1.7,-2.1 0.53,-0.78 1.1,-1.52 1.8,-2.15 0.06,-0.05 0.1,-0.09 0.16,-0.14 0,0 0.02,-0.06 0,-0.08 -1.22,0.34 -2.47,0.83 -3.41,1.65 -1.75,1.39 -2.36,4.19 -2.43,4.57 v 0.02 z"
       id="path7" />
    <path
       class="b"
       d="m 81.33,71.15 c -0.83,0.64 -1.37,0.85 -2.06,1.09 -1.04,0.36 -2.15,0.43 -3.24,0.48 -1.43,0.07 -2.81,0.14 -4.22,0.37 h -0.02 c -0.09,0.02 -0.13,-0.02 -0.1,-0.05 0,0 0.01,-0.01 0.02,-0.01 1.26,-0.46 2.11,-1.44 2.76,-2.66 0.45,-0.85 1.18,-2.51 1.38,-2.78 0,0 0,-0.06 -0.01,-0.07 -0.1,0.03 -1.48,1.21 -2.11,1.79 -0.78,0.72 -1.51,1.5 -2.29,2.22 -1.22,1.16 -2.97,1.68 -3.61,1.84 -0.02,0 -0.04,0.01 -0.05,0.02 -0.02,0.02 -0.03,0.05 -0.03,0.06 0,0 0,0 0,0 h 0.03 c 0.49,0.12 1.92,0.43 2.65,0.62 1.12,0.3 2.25,0.55 3.41,0.63 1.26,0.09 2.51,-0.04 3.69,-0.48 1.33,-0.5 2.97,-1.67 3.91,-3.07 v 0 c 0,0 -0.09,-0.02 -0.1,-0.01 z"
       id="path8" />
    <path
       class="b"
       d="m 85.62,64.58 c 0,0 -0.74,0.97 -2.46,2.15 -0.83,0.58 -1.61,0.95 -2.53,1.38 -1.14,0.53 -2.13,1.02 -3.1,1.82 -0.06,0.05 -0.12,0.09 -0.18,0.14 -0.03,0.02 -0.07,-0.02 -0.03,-0.06 0.05,-0.05 1.48,-1.52 1.91,-4.63 0.15,-1.08 0.17,-2.25 0.52,-3.3 0,-0.03 -0.01,-0.07 -0.02,-0.08 h -0.01 c -1.05,1.21 -1.93,3.08 -2.34,4.25 -0.29,0.83 -0.57,1.66 -0.86,2.48 -0.41,1.12 -0.94,2.17 -1.8,3.02 -0.01,0.01 -0.08,0.08 -0.08,0.08 0,0 -0.01,0.02 -0.01,0.05 v 0 c 0.12,-0.01 0.2,-0.02 0.28,-0.04 0.96,-0.2 1.91,-0.43 2.87,-0.59 1.61,-0.27 3.02,-0.84 4.31,-1.84 1.3,-1 2.4,-2.16 3.12,-3.65 0.19,-0.39 0.36,-0.77 0.48,-1.19 -0.02,0 -0.06,0 -0.09,0.01 z"
       id="path9" />
    <path
       class="b"
       d="m 87.57,57.14 c 0,0 -0.07,0.03 -0.07,0.04 -0.41,1.32 -1.16,2.38 -2.25,3.53 -0.85,0.88 -2.5,2.55 -3.26,3.71 -0.02,0.03 -0.08,0.02 -0.06,-0.04 0.37,-1.01 0.52,-2.79 0.3,-4.17 -0.19,-1.18 -0.7,-2.46 -0.83,-3.9 0,0 0,0 0,-0.01 0,-0.02 -0.04,-0.06 -0.06,-0.06 0,0 -0.01,0.02 -0.05,0.14 -0.25,0.84 -0.56,1.89 -0.61,2.86 -0.06,1.18 0.16,2.69 0.06,3.9 -0.11,1.4 -0.21,2.78 -0.85,4.05 v 0.02 c 0,0 0.01,0.1 0.01,0.1 v 0 c 0.51,-0.33 1.98,-1.19 2.94,-1.84 1.2,-0.8 2.27,-1.76 3.1,-2.96 1.04,-1.5 1.65,-3.31 1.61,-5.16 0,-0.06 0,-0.17 -0.01,-0.19 z"
       id="path10" />
    <path
       class="b"
       d="m 84.39,57.98 c 0,0 -0.02,0.02 -0.02,0.03 -0.03,0 -0.04,-0.03 -0.04,-0.04 0.05,-0.37 0.05,-0.83 0.02,-1.18 -0.1,-1.38 -0.93,-2.52 -1.66,-3.67 -0.38,-0.6 -1.04,-1.65 -1.32,-2.35 0,0 -0.06,-0.04 -0.07,-0.03 0,0.12 0.02,0.53 0.05,0.79 0.2,1.98 0.83,3.91 1.49,5.79 0.44,1.26 0.65,2.33 0.52,3.66 -0.01,0.11 -0.02,0.12 0.03,0.16 v 0 c 0.45,-0.64 1.31,-1.55 1.85,-2.2 0.58,-0.7 3.49,-4.03 2.06,-8.66 -0.09,-0.28 -0.19,-0.52 -0.23,-0.57 -0.02,0 -0.06,0.06 -0.07,0.07 0,3.33 -1.6,4.76 -2.27,7.04 -0.13,0.43 -0.23,0.84 -0.32,1.17 z"
       id="path11" />
    <path
       class="b"
       d="m 81.88,47.63 c -0.53,-0.46 -1.28,-1.22 -1.77,-1.98 -0.05,-0.07 -0.15,-0.05 -0.14,-0.04 0.03,0.14 0.49,1.61 0.78,2.29 0.43,0.99 1.11,1.82 1.76,2.67 0.05,0.06 0.09,0.12 0.14,0.19 0.65,0.87 1.68,2.72 1.93,3.67 0,0.03 0.06,0.05 0.07,0.04 0.09,-0.34 0.51,-1.66 0.82,-2.55 0.06,-0.18 0.61,-1.97 0.72,-2.74 0.31,-2.19 -0.41,-5.03 -1.69,-6.59 -0.02,0 -0.04,0.06 -0.04,0.08 0.02,0.07 0.04,0.13 0.06,0.2 0.03,0.1 0.06,0.19 0.08,0.29 0.33,1.43 0.22,2.43 0.06,3.65 -0.13,0.97 -0.32,1.93 -0.27,2.9 0,0.16 0.11,1.36 0.09,1.41 -0.02,0.05 -0.07,0.01 -0.07,-0.02 0,0 -0.16,-0.45 -0.31,-0.81 -0.06,-0.16 -0.13,-0.31 -0.19,-0.42 -0.51,-1.02 -1.18,-1.55 -2.03,-2.24 z"
       id="path12" />
    <path
       class="b"
       d="m 80.47,38.76 c 0.41,0.4 0.73,0.85 0.95,1.37 0.35,0.83 0.46,2.07 0.68,3.01 0.14,0.57 0.22,0.98 0.43,1.62 0.02,0.06 -0.04,0.08 -0.07,0.03 L 82.44,44.77 C 81.78,43.88 80.96,43.32 79.8,42.58 79.11,42.13 78.58,41.71 78.08,41.03 77.99,40.91 77.9,40.8 77.82,40.68 c 0,0 -0.06,-0.03 -0.08,-0.02 0,0.03 0,0.08 0.02,0.14 0.15,0.75 0.65,2.14 1.51,2.96 0.62,0.59 1.32,1.12 1.98,1.67 1.18,0.99 2,2 2.33,2.41 0,0 0.06,0.04 0.06,0.02 0,0 -0.02,-0.46 -0.02,-0.79 0,-0.72 0.03,-1.69 0.06,-2.36 0.01,-0.27 0.02,-0.54 0.02,-0.81 0,-0.8 -0.09,-1.6 -0.43,-2.36 -0.55,-1.23 -1.36,-2.22 -2.59,-2.82 -0.07,-0.04 -0.17,-0.07 -0.23,-0.09 0,0 -0.01,0.04 0,0.09 0,0 0,0 0,0.01 z"
       id="path13" />
    <path
       class="b"
       d="m 75.25,36.29 c 0.06,0.05 0.1,0.09 0.16,0.14 0.71,0.63 1.27,1.37 1.8,2.15 0.51,0.75 1.01,1.5 1.7,2.1 0.46,0.46 1.79,1.5 2.12,1.75 0,0 0.01,0 0.01,0.01 0.01,0 0.03,0 0.03,0 V 42.42 C 81,42.04 80.4,39.24 78.64,37.85 77.7,37.03 76.44,36.54 75.23,36.2 c -0.01,0.02 0,0.08 0,0.08 z"
       id="path14" />
    <path
       class="b"
       d="m 76.74,75.32 c -0.08,0.04 -0.13,0.06 -0.21,0.1 -1.45,0.75 -2.98,0.83 -4.56,0.53 C 70.9,75.74 69.9,75.31 68.9,74.89 68.18,74.58 67.48,74.25 66.74,74 c -1.92,-0.64 -3.85,-0.63 -5.79,-0.13 -0.03,0 -0.07,0.01 -0.1,0.02 -0.03,0 -0.07,0 -0.1,-0.02 -1.97,-0.5 -3.91,-0.5 -5.79,0.13 -0.74,0.25 -1.44,0.58 -2.16,0.89 -1,0.43 -2,0.86 -3.07,1.06 -1.57,0.3 -3.1,0.22 -4.56,-0.53 -0.08,-0.04 -0.13,-0.07 -0.21,-0.1 -0.02,0 -0.06,0.02 -0.07,0.03 0.98,1 2.23,1.69 3.44,2.03 0.89,0.25 1.79,0.3 2.71,0.19 1.42,-0.16 2.66,-0.73 3.83,-1.5 0.7,-0.46 1.4,-0.93 2.09,-1.4 0.8,-0.54 1.68,-0.64 2.6,-0.49 0.5,0.05 0.12,0.3 0.04,0.33 -1.24,0.61 -2.41,1.34 -3.51,2.18 -0.74,0.55 -2.07,1.82 -2.07,1.82 l 0.99,0.85 c 0,0 0.76,-0.85 1.09,-1.18 2.18,-2.27 4.1,-3.26 4.53,-3.51 0.07,-0.04 0.15,-0.08 0.22,-0.08 0.07,0 0.15,0.04 0.22,0.08 0.43,0.25 2.35,1.24 4.53,3.51 0.33,0.33 1.09,1.18 1.09,1.18 l 0.99,-0.85 c 0,0 -1.33,-1.28 -2.07,-1.82 -1.09,-0.84 -2.26,-1.57 -3.51,-2.18 -0.08,-0.04 -0.46,-0.28 0.04,-0.33 0.93,-0.15 1.8,-0.05 2.6,0.49 0.69,0.47 1.39,0.94 2.09,1.4 1.17,0.77 2.42,1.34 3.83,1.5 0.92,0.1 1.82,0.06 2.71,-0.19 1.2,-0.34 2.46,-1.03 3.43,-2.03 -0.01,-0.01 -0.05,-0.04 -0.07,-0.04 z"
       id="path15" />
    <path
       class="b"
       d="m 60.37,57.15 c 0.14,-0.21 -0.21,-0.34 -0.29,0.02 -0.08,0.33 0.16,0.18 0.29,-0.02 z"
       id="path16" />
    <path
       class="b"
       d="m 52.77,55.79 c 0.01,-0.13 0,-0.5 -0.09,-0.57 -0.09,-0.07 -0.08,0.06 -0.14,0.06 -0.05,0 -0.05,-0.18 -0.11,-0.18 -0.06,0 0.02,0.29 0.09,0.47 0.07,0.17 0.23,0.45 0.25,0.23 z"
       id="path17" />
    <path
       class="b"
       d="m 52.67,54.89 c 0,0 0.16,-0.66 0.13,-0.9 -0.02,-0.24 -0.15,-0.46 -0.18,-0.44 -0.04,0.02 0.02,0.16 0.03,0.39 0.01,0.34 -0.15,0.63 -0.15,0.74 0,0.11 0.1,0.35 0.17,0.21 z"
       id="path18" />
    <path
       class="b"
       d="m 56.71,55.82 c 0.08,0 0.14,-0.29 0.09,-0.44 -0.05,-0.14 -0.32,-0.04 -0.34,0.03 -0.02,0.07 0.17,0.41 0.25,0.41 z"
       id="path19" />
    <path
       class="b"
       d="m 59.15,52.22 c 0.13,0 0.13,-0.1 0.21,-0.1 0.08,0 0.01,0.1 0.15,0.1 0.14,0 0.28,-0.35 -0.16,-0.35 -0.35,0 -0.31,0.34 -0.2,0.34 z"
       id="path20" />
    <path
       class="b"
       d="m 59.72,52.58 c -0.27,-0.07 -0.21,0.08 -0.38,0.1 -0.27,0.03 -0.03,-0.2 -0.17,-0.31 -0.06,-0.05 -0.22,0.19 -0.23,0.33 0,0.07 0,0.31 0.11,0.32 0.12,0 0.73,0.08 0.93,0.12 0.23,0.05 0,-0.5 -0.26,-0.57 z"
       id="path21" />
    <path
       class="b"
       d="m 60.06,55.5 c -0.08,-0.04 -0.26,0.04 -0.28,-0.04 -0.02,-0.08 -0.16,-0.07 -0.13,0 0.03,0.07 -0.04,0.15 0.03,0.24 0.09,0.1 0.3,0.09 0.4,0 0.06,-0.06 0.02,-0.19 -0.02,-0.21 z"
       id="path22" />
    <path
       class="b"
       d="m 64.23,48.38 c 0.08,0.04 0.45,-0.15 0.38,-0.21 -0.07,-0.05 -0.49,-0.25 -0.5,-0.13 -0.01,0.2 0.04,0.29 0.12,0.34 z"
       id="path23" />
    <path
       class="b"
       d="m 64.11,48.5 c -0.13,-0.07 -0.68,0.6 -0.59,0.71 0.04,0.04 0.64,-0.67 0.59,-0.71 z"
       id="path24" />
    <path
       class="b"
       d="m 68.65,47.49 c 0.09,0.2 0.05,0.44 -0.22,0.45 -0.15,0 -0.19,0.16 -0.04,0.24 0.06,0.03 0.27,0 0.36,-0.06 0.1,-0.06 0.21,-0.14 0.19,-0.29 -0.01,-0.09 -0.22,-0.35 -0.11,-0.45 0.12,-0.11 0.24,0.06 0.36,0.01 0.14,-0.06 0.13,-0.14 0.13,-0.26 0,-0.17 -0.06,-0.39 -0.26,-0.39 -0.15,0 -0.4,0.39 -0.41,0.41 -0.02,0.04 -0.06,0.18 0,0.33 z"
       id="path25" />
    <path
       class="b"
       d="m 71.96,47.95 c -0.07,-0.21 -0.37,-0.91 -0.47,-0.88 -0.09,0.02 0.15,0.5 0.18,0.66 0.02,0.1 0,0.14 -0.01,0.23 0,0.09 0.26,0.72 0.28,0.89 0.03,0.17 0.08,0.68 0.22,0.63 0.09,-0.03 0.08,-0.35 0.06,-0.47 -0.06,-0.36 -0.13,-0.66 -0.26,-1.06 z"
       id="path26" />
    <path
       class="b"
       d="m 70.83,54.49 c 0.18,-0.04 0.16,-0.34 -0.01,-0.33 -0.17,0 -0.36,0.26 -0.31,0.26 0.12,0 0.22,0.09 0.32,0.07 z"
       id="path27" />
    <path
       class="b"
       d="m 62.59,37.51 c -0.32,-0.21 -0.05,-0.49 -0.31,-0.69 -0.18,-0.13 -0.68,0 -0.81,0.16 -0.22,0.28 0.28,0.19 0.46,0.27 0.2,0.09 0.63,0.46 0.71,0.38 0.08,-0.08 -0.02,-0.09 -0.05,-0.12 z"
       id="path28" />
    <path
       class="b"
       d="m 64.54,36.53 c -0.43,-0.2 -2.06,-0.19 -2.02,0.23 0.03,0.36 0.94,0.02 1.17,0 0.23,-0.02 1.22,-0.04 0.84,-0.24 z"
       id="path29" />
    <path
       class="b"
       d="m 69.95,39.62 c 0.16,0.06 0.16,-0.24 -0.11,-0.46 -0.27,-0.22 -0.63,-0.11 -0.53,0 0.09,0.1 0.5,0.41 0.64,0.46 z"
       id="path30" />
    <path
       class="b"
       d="m 79.54,52.39 c -0.08,-4.92 -2.07,-9.38 -5.25,-12.67 -0.15,-0.15 -0.3,-0.3 -0.45,-0.45 -3.29,-3.18 -7.75,-5.17 -12.67,-5.25 -0.11,0 -0.21,0 -0.32,0 -0.11,0 -0.21,0 -0.32,0 -4.92,0.08 -9.38,2.07 -12.67,5.25 -0.15,0.15 -0.3,0.3 -0.45,0.45 -3.18,3.29 -5.17,7.75 -5.25,12.67 0,0.11 0,0.21 0,0.32 0,0.11 0,0.21 0,0.32 0.08,4.92 2.07,9.38 5.25,12.67 0.15,0.15 0.3,0.3 0.45,0.45 3.29,3.18 7.75,5.17 12.67,5.25 0.11,0 0.21,0 0.32,0 0.11,0 0.21,0 0.32,0 4.92,-0.08 9.38,-2.07 12.67,-5.25 0.15,-0.15 0.3,-0.3 0.45,-0.45 3.18,-3.29 5.17,-7.75 5.25,-12.67 0,-0.11 0,-0.21 0,-0.32 0,-0.11 0,-0.21 0,-0.32 z M 61.17,34.66 c 2.32,0.04 4.58,0.52 6.71,1.42 1.07,0.45 2.1,1.01 3.07,1.66 0.87,0.59 1.69,1.25 2.44,1.98 l -2.08,2.08 c 0,0 -0.04,-0.03 -0.07,-0.04 -0.12,-0.07 -0.22,-0.1 -0.16,-0.18 0.13,-0.16 -0.13,-0.14 -0.22,-0.54 -0.09,-0.4 -0.49,-0.8 -0.73,-0.94 -0.24,-0.14 -0.41,-0.32 -0.63,-0.45 -0.24,-0.14 -0.74,-0.41 -1,-0.29 -0.13,0.06 -0.3,0.1 -0.49,0.13 v 0 c -2.04,-1.1 -4.36,-1.75 -6.83,-1.8 v -3.03 z m 9.78,26.94 c -0.14,-0.37 -0.21,-0.49 -0.24,-0.64 -0.03,-0.18 -0.42,-0.21 -0.43,-0.1 -0.01,0.17 0.02,0.4 -0.06,0.58 0,0.01 0,0.09 0,0.1 -0.01,0.02 -0.02,0.03 -0.03,0.05 L 69.1,60.5 c 1.86,-1.96 3.02,-4.59 3.1,-7.49 h 3.03 c -0.04,1.83 -0.42,3.61 -1.13,5.28 -0.68,1.62 -1.65,3.08 -2.86,4.35 l -0.23,-0.23 c 0,0 0.03,-0.04 0.04,-0.07 0.07,-0.21 0,-0.48 -0.1,-0.75 z m -2.49,3.13 c -0.07,-0.11 0.32,-0.43 0.39,-0.62 0.09,-0.22 -0.39,-0.32 -0.26,-0.55 0.14,-0.27 0.44,-0.68 0.57,-0.95 0.11,-0.3 -0.4,-0.62 -0.71,-0.71 -0.28,-0.09 -0.28,-0.25 -0.24,-0.48 0,-0.02 0,-0.04 0,-0.07 0.15,-0.13 0.3,-0.26 0.44,-0.39 l 2.14,2.14 c -0.76,0.72 -1.58,1.36 -2.46,1.89 0.03,-0.06 0.05,-0.11 0.07,-0.13 0.05,-0.05 0.07,-0.09 0.06,-0.14 z M 69.33,46.3 c 0,0 0.06,0 0.12,0 0.35,0.47 0.66,0.97 0.93,1.49 -0.02,0.02 -0.05,0.03 -0.08,0.04 -0.04,0.01 -0.04,-0.07 -0.09,-0.05 -0.01,0.02 -0.04,0.04 -0.05,0.05 -0.06,0.05 -0.31,-0.32 -0.3,-0.04 0.02,0.34 0.09,0.4 0.29,0.46 0.17,0.05 0.1,0.17 0.23,0.21 0.08,0.03 0.14,0.07 0.19,0.12 0.06,0.04 0.15,0.07 0.21,0.1 0.2,0.49 0.36,0.99 0.48,1.5 -0.06,-0.01 -0.1,0.07 -0.13,0.09 -0.03,0.03 0.06,-0.09 -0.02,-0.05 -0.07,0.05 -0.15,0.08 -0.21,0.15 -0.09,0.12 -0.07,0.31 -0.15,0.43 -0.17,0.26 -0.22,0.4 -0.58,0.27 -0.25,-0.09 -0.03,-0.39 0.02,-0.65 0.04,-0.19 0.16,-0.21 0.17,-0.32 0.01,-0.11 -0.5,-0.68 -0.74,-0.48 -0.2,0.16 -0.22,0.42 -0.37,0.61 -0.08,0.1 -0.19,0.11 -0.34,0 -0.1,-0.07 -0.19,-0.2 -0.15,-0.3 0.07,-0.17 -0.36,-0.55 -0.51,-0.74 -0.21,-0.27 -0.5,-0.34 -0.74,-0.38 -0.01,0 -0.02,0 -0.03,0 -0.28,-0.48 -0.61,-0.92 -0.98,-1.33 l 2.11,-2.11 c 0,0 0.02,0.05 0.04,0.07 0.04,0.06 0.02,0.08 0.05,0.14 0.03,0.06 0.1,0.16 0.14,0.15 0.03,0 0.03,-0.1 0.03,-0.17 0.18,0.2 0.35,0.4 0.51,0.62 -0.03,0 -0.06,0 -0.07,0.02 -0.02,0.03 0,0.06 0.02,0.07 z m 1.96,5.2 c 0,0 0.04,-0.05 0.06,-0.08 0.07,0.01 0.06,-0.06 0.11,-0.15 v 0 c 0.05,0.36 0.08,0.74 0.09,1.12 H 69.2 c 0,0 0.07,-0.04 0.09,-0.06 0,-0.01 0.02,-0.05 0.02,-0.06 0.11,-0.28 0.64,-0.22 0.49,-0.44 -0.24,-0.35 0.1,-0.37 0.43,-0.53 0.19,-0.09 0.42,0.03 0.46,-0.07 0.03,-0.08 0.12,-0.3 0.22,-0.35 0.14,-0.07 0.25,-0.09 0.31,-0.18 0.05,-0.06 0.01,-0.1 0.03,-0.17 0.02,-0.07 0.05,-0.05 0.06,-0.12 v 0 c 0.02,0.09 0.04,0.2 0.06,0.31 -0.02,0.07 -0.05,0.15 -0.09,0.22 -0.07,0.19 -0.16,0.36 -0.18,0.54 -0.01,0.14 0.01,0.34 0.17,0.01 z m -4.37,-2.4 c 0,0 -0.06,0.04 -0.11,0.08 -0.05,0.04 -0.11,0.12 -0.13,0.16 -0.06,0.09 -0.28,-0.12 -0.36,-0.04 -0.06,0.07 0.35,0.54 -0.06,0.41 -0.41,-0.13 -0.14,-0.17 -0.13,-0.28 0,-0.08 -0.36,-0.26 -0.16,-0.33 0.22,-0.08 0,-0.23 0.18,-0.29 0.23,-0.09 0.16,-0.27 -0.12,-0.32 -0.27,-0.05 -0.19,0.52 -0.36,0.44 -0.16,-0.07 -0.29,-0.03 -0.41,-0.06 -0.03,0 -0.05,-0.03 -0.07,-0.06 l 0.58,-0.58 c 0,0 0.03,0 0.04,0 0.02,0 0.12,0.06 0.12,0.06 0.07,0.03 0.1,-0.07 0.17,-0.07 0.07,0 0.14,0.04 0.16,0.02 0.02,-0.01 0.01,-0.06 0.02,-0.09 0.24,0.29 0.46,0.6 0.65,0.92 z m -1.52,9.82 c 0.24,0.07 0.55,0.18 0.63,0.21 0.27,0.09 0.67,0.08 0.92,0.22 0.06,0.03 0.12,0.07 0.18,0.11 0.12,0.07 0.23,0.11 0.33,-0.06 0.05,-0.08 0.12,-0.18 0.19,-0.32 0.16,-0.28 0.34,-0.67 0.41,-1.17 0.11,-0.74 -0.04,-0.98 -0.15,-1.01 -0.1,-0.02 -0.3,0.19 -0.49,0.21 -0.12,0 -0.09,0.22 -0.09,0.35 0,0.14 -0.21,0.28 -0.27,0.21 -0.08,-0.1 -0.18,-0.09 -0.11,0.03 0.04,0.06 -0.12,0.08 -0.3,0.05 -0.11,-0.02 -0.22,-0.05 -0.3,-0.09 -0.28,-0.15 0.33,-0.16 0.65,-0.39 0.01,0 0.03,-0.02 0.05,-0.04 0.18,-0.14 0.59,-0.54 0.67,-0.66 0.14,-0.23 0.16,-0.55 0.37,-0.73 0.19,-0.16 0.66,-0.16 0.67,-0.42 0.01,-0.23 0.11,-0.22 0.26,-0.18 0.18,0.06 1.52,-0.05 1.5,-0.48 0,-0.21 -0.32,-0.45 -0.61,-0.48 -0.18,-0.02 -0.25,-0.38 -0.36,-0.6 -0.14,-0.28 -0.27,-0.44 -0.34,-0.57 -0.01,-0.03 -0.02,-0.06 -0.03,-0.08 h 2.36 c -0.04,1.34 -0.32,2.63 -0.84,3.85 -0.5,1.18 -1.2,2.25 -2.08,3.18 l -0.07,-0.07 c 0,0 0.01,-0.04 0.01,-0.06 0,-0.06 -0.01,-0.19 0,-0.25 0.04,-0.4 -0.25,-1.03 -0.35,-0.95 -0.08,0.06 -0.02,0.12 -0.31,0.53 l -0.03,0.04 c -0.1,0.16 -0.22,0.37 -0.39,0.37 -0.07,0 -0.12,-0.03 -0.2,-0.06 -0.07,-0.02 -0.16,-0.04 -0.3,-0.01 -0.42,0.08 -0.66,0 -0.79,-0.03 -0.13,-0.02 -0.76,-0.31 -1.1,-0.48 -0.14,-0.07 -0.22,-0.13 -0.21,-0.14 0.04,-0.05 0.18,0.06 0.18,-0.08 0,-0.05 0.13,-0.02 0.3,0.03 z m 6.8,-6.53 c -0.02,-0.68 -0.1,-1.34 -0.23,-1.98 v 0 c 0.09,-0.2 0.16,-0.42 0.14,-0.63 -0.02,-0.21 -0.16,-0.28 -0.3,-0.15 0,0 -0.02,0.02 -0.03,0.03 -0.11,-0.4 -0.25,-0.8 -0.4,-1.18 0.01,-0.01 0.02,-0.03 0.03,-0.04 0.06,-0.12 -0.12,-0.35 -0.17,-0.56 -0.02,-0.07 -0.1,-0.13 -0.2,-0.17 v 0 c -0.08,-0.17 -0.17,-0.33 -0.26,-0.49 0.1,-0.11 0.23,-0.29 0.04,-0.31 -0.3,-0.03 -0.13,-0.18 -0.23,-0.3 -0.04,-0.04 -0.1,0 -0.14,0.04 -0.39,-0.62 -0.85,-1.21 -1.35,-1.74 l 0.71,-0.71 c 0.12,0.08 0.36,0.38 0.75,0.4 0.25,0.01 0.34,0.14 0.37,0.38 0.04,0.24 0.31,0.36 0.54,0.41 0.22,0.05 0.38,0.32 0.59,0.36 0.25,0.04 0.82,0.87 1.06,1.17 0.13,0.16 0.36,0.39 0.51,0.21 0.1,-0.12 0.17,-0.1 0.22,-0.15 0.03,-0.03 0.06,-0.11 0.1,-0.18 0.05,0.11 0.1,0.22 0.14,0.33 0.71,1.68 1.09,3.45 1.13,5.28 H 72.19 Z M 61.16,38.32 c 1.83,0.04 3.61,0.42 5.28,1.13 0.31,0.13 0.62,0.27 0.91,0.42 -0.04,0.06 -0.07,0.12 -0.07,0.16 0.02,0.3 0.25,0.61 0.39,0.83 0.13,0.21 0.24,0.48 0.41,0.66 0.15,0.16 0.05,0.44 0.12,0.69 0.03,0.11 0.11,0.19 0.13,0.3 0,0.09 -0.04,0.3 -0.02,0.38 0.02,0.07 0.19,0.04 0.32,-0.07 0.13,-0.11 0.26,-0.28 0.45,-0.23 0.19,0.05 0.46,0.42 0.6,0.7 0.01,0.03 0.03,0.06 0.04,0.07 l -0.97,0.97 c -0.03,-0.17 -0.21,-0.47 -0.14,-0.52 0.07,-0.05 0.13,0.04 0.18,0.04 0.19,0.02 -0.14,-0.17 -0.16,-0.19 -0.15,-0.13 -0.17,-0.34 -0.35,-0.47 -0.21,-0.15 -0.48,-0.07 -0.58,-0.22 -0.24,-0.43 -0.74,-0.9 -0.78,-0.88 -0.03,0.02 0.39,0.56 0.26,0.65 -0.1,0.08 -0.69,-0.38 -0.75,-0.28 -0.07,0.11 0.59,0.34 0.77,0.52 0.1,0.1 0.3,0.38 0.51,0.65 0.07,0.06 0.12,-0.01 0.12,0.05 0,0.01 0,0.03 0,0.05 -1.85,-1.45 -4.16,-2.34 -6.68,-2.41 v -3.03 z m 0,3.67 c 1.34,0.04 2.63,0.32 3.85,0.84 1.18,0.5 2.25,1.2 3.18,2.08 l -2.14,2.14 c -1.3,-1.2 -3.01,-1.95 -4.89,-2.03 z m 0,6.68 v -3.02 c 0.84,0.04 1.66,0.22 2.43,0.55 0.74,0.31 1.41,0.74 2.01,1.29 -0.01,0 -0.03,0 -0.05,0 -0.04,0.01 -0.08,0.14 -0.12,0.16 -0.09,0.05 -0.17,0 -0.2,0 -0.23,-0.09 -0.77,0.36 -0.64,0.43 0.12,0.07 0.31,-0.13 0.43,-0.16 0.03,0 0.09,0 0.14,0.03 l -0.86,0.86 c 0,0 -0.08,-0.02 -0.17,0.03 -0.26,0.11 -0.44,0.36 -0.46,0.46 -0.01,0.06 0,0.09 0.03,0.12 l -0.23,0.23 v 0 C 63.18,49.41 62.84,49.2 62.48,49.04 v 0 c 0.11,-0.1 0.18,-0.25 0.2,-0.46 0.02,-0.32 -0.11,-0.16 -0.27,-0.06 -0.17,0.1 -0.39,0.26 -0.37,0.34 0,0.01 0,0.02 0,0.02 -0.28,-0.09 -0.58,-0.15 -0.89,-0.17 v 0 z m 0.75,0.8 v 0 c 0.17,0.05 0.33,0.12 0.48,0.2 -0.08,0 -0.21,0 -0.23,0 -0.04,0 -0.03,-0.03 -0.07,-0.04 -0.04,-0.02 -0.04,0.03 -0.08,0.02 -0.04,-0.01 -0.01,-0.05 -0.04,-0.07 -0.03,-0.02 -0.05,-0.01 -0.06,-0.02 -0.01,0 0,-0.05 0,-0.08 z M 61.8,49.43 Z m -0.87,0.02 c 0.02,0.05 0.03,0.13 -0.09,0.22 -0.11,0.08 -0.37,-0.25 -0.46,0.03 -0.09,0.28 0.18,0.14 0.22,0.22 0.04,0.07 0.41,0.37 0.6,0.35 0.19,-0.01 0.5,0 0.48,0.22 -0.01,0.1 0.27,0.09 0.27,0.18 0.01,0.17 0.14,0.38 0.27,0.35 0.27,-0.05 0.37,0.21 0.24,0.37 -0.13,0.16 0.15,0.09 0.2,0.42 0.05,0.3 -0.23,0.07 -0.29,0.29 -0.04,0.13 -0.23,0.29 -0.31,0.37 -0.06,0.05 0.05,0.15 0.12,0.09 0.07,-0.06 0.16,-0.21 0.28,-0.18 0.13,0.03 0.27,0.55 0.43,0.61 0.16,0.07 0.12,0.24 0.13,0.31 0.02,0.08 -0.23,0 -0.21,0.08 0.04,0.15 0.33,0.17 0.32,0.29 0,0.12 -0.18,0.3 -0.32,0.29 -0.13,0 -0.39,-0.34 -0.38,-0.26 0,0.1 0.11,0.39 0.25,0.37 0.14,-0.02 0.48,-0.15 0.36,0.04 -0.09,0.14 -0.09,0.5 -0.18,0.47 -0.15,-0.05 -0.16,0 -0.05,0.13 0.04,0.05 0.06,0.27 -0.09,0.43 -0.08,0.09 -0.32,0 -0.33,-0.06 -0.01,-0.09 0.32,-0.04 0.31,-0.2 0,-0.11 -0.16,-0.18 -0.42,-0.1 -0.13,0.04 -0.2,-0.04 -0.29,-0.04 -0.11,0 -0.37,0.32 -0.41,0.39 -0.05,0.08 -0.03,0.2 -0.05,0.29 -0.02,0.17 -0.03,0.29 -0.14,0.43 -0.05,0.08 -0.03,0.13 -0.05,0.19 -0.17,0.02 -0.33,0.04 -0.51,0.04 -0.07,0 -0.13,0 -0.2,0 0,0 -0.01,-0.01 -0.02,-0.02 -0.05,-0.04 -0.15,-0.11 -0.25,-0.05 -0.02,0 -0.03,0.02 -0.04,0.04 -0.66,-0.1 -1.26,-0.39 -1.74,-0.82 0.03,0 0.05,-0.02 0.08,-0.03 0.1,-0.06 0.31,-0.17 0.44,-0.14 0.16,0.04 0.18,-0.05 0.28,-0.08 0.1,-0.03 0.34,0.12 0.48,-0.01 0.11,-0.1 0.5,-0.74 0.45,-0.87 -0.05,-0.13 0.36,-0.37 0.29,-0.44 -0.03,-0.03 -0.09,0.03 -0.11,-0.01 -0.02,-0.04 0.11,-0.06 -0.02,-0.24 -0.09,-0.13 -0.24,-0.07 -0.32,-0.12 -0.17,-0.11 -0.39,-0.16 -0.44,-0.09 -0.05,0.06 -0.19,-0.08 -0.26,-0.06 -0.06,0.02 -0.11,0.04 -0.16,0.13 -0.05,0.08 0.07,0.18 0.05,0.27 -0.04,0.18 -0.35,0.36 -0.36,0.48 0,0.12 -0.13,0.03 -0.18,0.12 -0.04,0.07 0,0.16 -0.11,0.16 -0.07,0 -0.35,0.42 -0.36,0.45 -0.02,0.04 0,0.08 0,0.09 0,0.02 -0.03,0.06 -0.02,0.1 v 0 c -0.21,-0.23 -0.39,-0.49 -0.53,-0.78 0.01,0 0.02,0.01 0.04,0.01 0.05,0 0.08,0 0.14,-0.01 0.07,0 0.12,-0.18 0.21,-0.13 0.17,0.11 0.74,-0.93 0.63,-1.21 -0.08,-0.21 -0.24,-0.08 -0.37,-0.03 -0.13,0.05 -0.17,-0.08 -0.08,-0.14 0.09,-0.06 0.69,-0.05 0.35,-0.27 -0.13,-0.09 -0.55,-0.11 -0.51,-0.23 0.04,-0.12 0.22,0 0.29,0.02 0.26,0.09 0.39,-0.37 0.56,-0.38 0.26,-0.02 0.17,-0.5 -0.08,-0.36 -0.18,0.1 -0.34,0.1 -0.46,0.23 -0.07,0.08 -0.34,0.33 -0.34,0.13 0,-0.09 0.55,-0.41 0.67,-0.53 0.11,-0.11 0.17,-0.24 0.22,-0.38 0.07,-0.16 0.75,-0.25 0.88,-0.33 0.1,-0.06 0.22,-0.3 0.22,-0.42 0,-0.13 -0.21,-0.09 -0.23,-0.19 -0.03,-0.12 0.26,0 0.24,-0.16 -0.03,-0.22 -0.3,0.03 -0.35,-0.1 -0.02,-0.06 0.1,-0.11 0.11,-0.15 0.01,-0.05 0,-0.1 -0.03,-0.12 v 0 c 0.29,-0.09 0.59,-0.13 0.91,-0.14 v 0 c 0,0.08 0.11,0.11 0.14,0.16 z m -8.31,9.9 c 0.01,-0.05 0.01,-0.11 0.01,-0.17 0,-0.32 -0.22,-0.54 -0.35,-0.81 -0.12,-0.26 -0.07,-0.57 -0.06,-0.85 0.01,-0.34 -0.13,-0.53 -0.26,-0.83 -0.06,-0.14 -0.11,-0.37 -0.1,-0.58 0.02,-0.36 -0.3,-0.22 -0.29,-0.33 0.01,-0.17 0.22,0.01 0.26,-0.08 0.03,-0.07 -0.31,-0.51 -0.52,-0.62 -0.23,-0.12 -0.15,-0.23 -0.13,-0.38 0.02,-0.15 -0.01,-0.26 -0.06,-0.41 -0.07,-0.21 -0.01,-0.51 0.24,-0.54 0.11,-0.01 0.28,0.08 0.4,-0.01 0.14,-0.11 0.07,-0.4 0.05,-0.61 0,-0.04 0,-0.08 0.01,-0.12 h 0.28 c 0.09,0.03 0.26,0.03 0.3,0.02 0.02,0 0.04,-0.01 0.07,-0.02 h 0.67 c 0.01,0.25 0.03,0.5 0.07,0.75 -0.01,0 -0.02,0 -0.04,0.01 -0.07,0.03 -0.13,0.12 -0.09,0.19 0.03,0.06 0.08,0.06 0.14,0.06 0.03,0 0.01,0.06 0.04,0.07 0.27,1.46 0.94,2.77 1.91,3.82 l -2.14,2.14 C 52.9,59.91 52.77,59.77 52.64,59.62 v 0 c -0.02,-0.09 0.02,-0.16 0.02,-0.22 0,-0.06 -0.03,-0.03 -0.04,-0.05 z m -1.67,-4.99 c 0.4,0.45 -0.1,0.69 -0.45,0.58 -0.07,-0.01 -0.11,-0.03 -0.16,-0.04 -0.13,-0.62 -0.21,-1.25 -0.22,-1.89 h 1.35 c 0,0.06 -0.02,0.11 -0.03,0.15 -0.08,0.18 -0.29,0.25 -0.33,0.36 -0.04,0.11 -0.32,0.65 -0.15,0.84 z m -2.65,2.83 c -0.18,0.14 -0.71,0.13 -0.91,0.17 -0.04,0 -0.09,0 -0.16,0.01 -0.48,-1.4 -0.74,-2.86 -0.77,-4.36 h 3.03 c 0.02,0.55 0.07,1.1 0.16,1.63 v 0 c -0.07,-0.02 -0.07,-0.13 -0.21,-0.12 -0.16,0 -0.71,0.96 -0.93,1.36 -0.18,0.32 0.08,1.1 -0.2,1.32 z m 1.18,-4.82 h -3.03 c 0.04,-1.83 0.42,-3.61 1.13,-5.28 0.68,-1.62 1.65,-3.08 2.86,-4.35 l 2.14,2.14 c -1.86,1.96 -3.02,4.59 -3.1,7.49 z m 3.72,-2.45 c 0,0 0.24,-0.03 0.49,-0.1 0.28,-0.08 0.59,-0.17 0.61,-0.12 0.06,0.14 -0.4,0.22 -0.7,0.34 -0.02,0 -0.04,0.02 -0.05,0.02 -0.29,0.13 -0.41,0.38 -0.87,0.38 -0.22,0 -0.34,0.19 -0.44,0.36 -0.12,0.19 -0.24,0.38 -0.32,0.6 -0.08,0.22 -0.03,0.62 -0.21,0.89 -0.02,0.03 -0.03,0.06 -0.05,0.09 h -1.55 c 0.04,-1.34 0.32,-2.63 0.84,-3.85 0.5,-1.18 1.2,-2.25 2.08,-3.18 l 2.14,2.14 c -0.57,0.62 -1.04,1.33 -1.38,2.11 -0.04,0.02 -0.08,0.05 -0.1,0.07 -0.15,0.14 -0.52,0.13 -0.48,0.26 z m 0.72,3.64 c 0,0 0.07,0.05 0.05,0.08 -0.02,0.03 -0.07,0.02 -0.13,0 -0.03,-0.21 -0.05,-0.42 -0.06,-0.63 h 0.07 c 0,0 0,0.02 0,0.03 0.02,0.04 0.06,0.18 0.09,0.23 0.04,0.04 0.04,0.1 0.05,0.12 0,0.02 0.03,0.06 0,0.09 -0.04,0.03 -0.09,0.04 -0.08,0.08 z M 53.2,51.75 c -0.02,0.2 -0.04,0.41 -0.05,0.62 h -0.97 c 0,0 0,-0.02 0,-0.03 0,-0.04 -0.01,-0.02 -0.04,-0.07 -0.03,-0.14 -0.02,-0.26 0.06,-0.4 0.12,-0.19 0.34,-0.28 0.57,-0.25 0.13,0.01 0.26,0.03 0.39,0.1 0.02,0.01 0.03,0.03 0.05,0.04 z m 2.43,-3.82 1.91,1.91 c 0,0 -0.03,0 -0.05,0 -0.05,0 -0.16,0.01 -0.23,0 -0.18,-0.03 -0.2,-0.15 -0.33,-0.13 -0.29,0.04 -0.32,0.13 -0.39,0.09 -0.15,-0.11 -0.47,-0.39 -0.72,-0.5 -0.19,-0.08 -0.63,-0.13 -0.98,0.07 -0.03,0.02 -0.07,0.08 -0.12,0.09 0,0 -0.11,0.01 -0.18,0.02 0.29,-0.56 0.65,-1.08 1.08,-1.55 z m 0,-0.9 -2.14,-2.14 c 0.93,-0.88 2,-1.58 3.18,-2.08 1.22,-0.52 2.52,-0.8 3.85,-0.84 V 45 c -1.89,0.08 -3.6,0.83 -4.89,2.03 z M 53.04,44.44 50.9,42.3 c 1.27,-1.22 2.73,-2.18 4.35,-2.86 1.68,-0.71 3.45,-1.09 5.28,-1.13 v 3.03 c -2.9,0.08 -5.52,1.24 -7.49,3.1 z m -2.22,17.84 -0.37,0.37 c -0.16,-0.17 -0.31,-0.34 -0.47,-0.51 0.08,0 0.17,-0.02 0.2,-0.03 0.13,-0.06 0.34,0 0.55,0.14 0.02,0.01 0.05,0.02 0.08,0.03 z m 3.52,-6.83 c -0.2,-0.46 -0.34,-0.94 -0.43,-1.43 0.05,0 0.1,0.02 0.13,0.03 0.06,0.02 0.11,0.07 0.15,0.11 0.08,0.07 0.19,0.2 0.29,0.15 0.13,-0.07 0.33,0 0.37,0.01 0.06,0.02 0.25,0.12 0.36,0.27 0.1,0.13 0.3,0.04 0.43,0.14 0.08,0.06 0.3,0.21 0.12,0.28 -0.15,0.06 0.19,0.29 0.26,0.28 0.07,-0.01 0.1,-0.08 0.07,-0.23 0,-0.06 0.08,-0.26 0.27,-0.21 0.14,0.04 0.57,0.58 0.73,0.41 0.13,-0.13 0.06,-0.44 0.11,-0.52 0.03,-0.05 0.08,-0.06 0.12,-0.08 0.13,0.24 0.29,0.46 0.46,0.67 v 0 l -2.13,2.14 C 55.11,56.88 54.67,56.2 54.36,55.46 Z m 3.43,-1.98 c 0,0 0,0.02 -0.01,0.03 v 0.02 c 0,0 -0.01,0.03 -0.02,0.05 v 0 c 0,0 0,0.04 -0.01,0.06 v 0.02 0 0.1 h -0.01 v 0.03 C 57.7,53.7 57.63,53.59 57.63,53.59 57.6,53.55 57.57,53.53 57.55,53.51 57.53,53.5 57.5,53.49 57.49,53.48 c -0.04,-0.02 -0.1,-0.02 -0.16,0 -0.03,0 -0.06,0.01 -0.09,0.02 v 0 c 0,0 -0.06,0.02 -0.09,0.04 -0.02,0 -0.04,0.02 -0.06,0.02 h -0.02 c 0,0 -0.03,0.02 -0.04,0.02 H 57 c 0,0 -0.03,0.01 -0.04,0.02 h -0.04 c 0,0 -0.05,0.01 -0.07,0.02 -0.05,0 -0.1,0.01 -0.15,0.01 -0.05,0 -0.1,0 -0.14,0 -0.04,0 -0.09,0 -0.13,0 -0.09,0 -0.16,-0.02 -0.17,-0.05 -0.04,-0.2 0.19,-0.05 0.41,-0.54 0.01,-0.03 0.03,-0.07 0.04,-0.1 0.03,-0.08 0.06,-0.14 0.09,-0.2 l 0.02,-0.04 0.02,-0.04 v 0 c 0,0 0.03,-0.05 0.05,-0.07 v 0 c 0,0 0.03,-0.04 0.05,-0.06 v 0 c 0,0 0.05,-0.05 0.08,-0.06 0.07,-0.04 0.14,-0.05 0.21,-0.04 v 0 c 0,0 0.02,0 0.04,0.01 h 0.02 l 0.03,0.02 h 0.02 c 0,0 0.02,0.02 0.03,0.03 h 0.02 l 0.03,0.03 0.02,0.02 h 0.01 v 0.02 c 0,0 0.03,0.02 0.04,0.03 l 0.02,0.02 c 0,0 0.03,0.03 0.04,0.05 0.02,0.02 0.04,0.04 0.05,0.05 0.04,0.03 0.08,0.06 0.12,0.08 0.08,0.05 0.15,0.08 0.2,0.16 0.01,0.02 0.02,0.04 0.03,0.06 0,0.02 0.02,0.03 0.03,0.05 0.03,0.04 0.07,0.06 0.11,0.07 0.01,0 0.03,0 0.05,0 0.03,0 0.06,0 0.1,-0.02 0.02,0 0.03,0 0.05,-0.02 0.08,-0.03 0.12,-0.02 0.14,0.01 0,0.01 0,0.02 0,0.04 0,0.03 -0.01,0.06 -0.03,0.1 -0.02,0.03 -0.04,0.07 -0.06,0.1 -0.05,0.07 -0.11,0.09 -0.18,0.08 -0.09,0 -0.18,-0.05 -0.25,-0.06 -0.04,0 -0.08,0 -0.1,0.03 0,0 -0.01,0.02 -0.02,0.03 v 0 c 0,0 0,0.03 -0.01,0.04 v 0.02 z m 2.75,-4.79 c -0.36,0.03 -0.71,0.11 -1.04,0.22 -0.03,0 -0.06,0 -0.06,0 0.11,-0.18 0.31,-0.37 0.29,-0.4 -0.03,-0.04 -0.37,0.22 -0.48,0.45 -0.02,0.03 -0.04,0.06 -0.06,0.08 -0.34,0.16 -0.66,0.36 -0.94,0.6 v 0 L 56.1,47.49 c 0.59,-0.54 1.27,-0.98 2.01,-1.29 0.77,-0.33 1.59,-0.51 2.43,-0.55 v 3.02 0 z M 50.75,37.75 c 0.97,-0.65 2,-1.21 3.07,-1.66 2.13,-0.9 4.38,-1.38 6.71,-1.42 v 3.03 c -3.91,0.08 -7.45,1.66 -10.08,4.17 l -2.14,-2.14 c 0.76,-0.73 1.58,-1.39 2.44,-1.98 z m -6.54,7.94 c 0.45,-1.07 1.01,-2.1 1.66,-3.07 0.59,-0.87 1.25,-1.69 1.98,-2.44 l 2.14,2.14 c -2.52,2.63 -4.09,6.17 -4.17,10.08 h -3.03 c 0.04,-2.32 0.52,-4.58 1.42,-6.71 z m 1.66,17.12 c -0.65,-0.97 -1.21,-2 -1.66,-3.07 -0.9,-2.13 -1.38,-4.38 -1.42,-6.71 h 3.03 c 0.03,1.52 0.29,2.98 0.74,4.35 v 0 c -0.16,0 -0.25,-0.07 -0.45,-0.17 -0.18,-0.09 -0.33,0.03 -0.41,0.03 -0.18,-0.02 -0.45,-0.15 -0.45,-0.01 0,0.07 0.21,0.07 0.2,0.15 -0.02,0.13 -0.51,0.08 -0.54,-0.11 -0.02,-0.16 -0.13,-0.37 -0.17,-0.15 -0.04,0.26 -0.25,0.18 -0.33,0.26 -0.07,0.06 -0.1,0.17 -0.09,0.26 0,0.09 -0.26,0.03 -0.25,0.21 0.01,0.18 0.16,0.19 0.2,0.36 0.04,0.16 0.18,0.26 0.1,0.31 -0.08,0.05 -0.07,-0.06 -0.14,-0.02 -0.13,0.07 0.45,1.55 0.57,1.5 0.08,-0.04 -0.15,-0.51 -0.14,-0.69 0,-0.18 0.04,-0.26 0.18,-0.33 0.15,-0.07 0.55,0.6 0.69,0.48 0.07,-0.06 -0.04,-0.21 0.09,-0.26 0.12,-0.05 0.6,0.66 0.74,0.44 0.08,-0.13 0.18,0.09 0.21,0.16 0.13,0.25 0.4,0.25 0.56,0.52 0.14,0.23 0.49,0.85 0.75,0.82 0.18,-0.03 0.11,-0.23 0.19,-0.23 0.08,0 0.17,0.32 0.35,0.53 0.11,0.14 0.27,0.22 0.42,0.28 0.37,0.49 0.76,0.95 1.18,1.39 l -2.14,2.14 C 47.15,64.49 46.49,63.67 45.9,62.81 Z m 14.65,7.96 C 58.2,70.73 55.94,70.25 53.81,69.35 52.74,68.9 51.71,68.34 50.74,67.69 49.87,67.1 49.05,66.44 48.3,65.71 l 2.14,-2.14 c 2.63,2.52 6.17,4.09 10.08,4.17 z m 0,-3.66 C 58.69,67.07 56.91,66.69 55.24,65.98 53.62,65.3 52.16,64.33 50.89,63.12 l 0.42,-0.42 c 0.13,0.08 0.27,0.17 0.3,0.18 0.25,0.1 0.41,0.12 0.68,0.08 0.21,-0.04 0.57,-0.41 0.82,-0.4 0.22,0 0.63,0.11 0.87,-0.05 0.29,-0.19 -0.17,-0.65 -0.3,-0.87 -0.02,-0.03 -0.06,-0.08 -0.1,-0.16 1.89,1.57 4.3,2.54 6.93,2.61 v 3.03 z m 0,-3.67 C 59.18,63.4 57.89,63.12 56.67,62.6 55.49,62.1 54.42,61.4 53.49,60.52 l 2.14,-2.14 c 0.94,0.87 2.1,1.5 3.38,1.81 -0.02,0.01 -0.03,0.03 -0.05,0.03 -0.32,0.12 -0.62,0.49 -0.53,0.73 0.11,0.3 -0.3,0.4 -0.3,0.7 0,0.27 0.39,0.48 0.46,0.77 0.04,0.16 0.4,0.37 0.7,0.57 0.14,0.1 0.95,0.1 1.14,0.1 0.03,0 0.06,0 0.09,0 v 0.34 z m 0.54,-4.18 c -0.15,0.02 -0.35,0.17 -0.54,0.16 -0.07,0 -0.14,-0.02 -0.2,-0.07 -0.15,-0.12 -0.33,0.19 -0.4,0.24 -0.04,0.04 -0.09,0.07 -0.15,0.11 -0.58,-0.09 -1.14,-0.25 -1.68,-0.47 -0.74,-0.31 -1.42,-0.75 -2.01,-1.29 l 2.13,-2.13 v 0 c 0.6,0.5 1.35,0.84 2.17,0.93 0.02,0 0.04,0 0.04,0.03 -0.01,0.06 0.03,0.1 0.06,0.23 0,0 0.05,0.13 0.04,0.18 -0.01,0.09 -0.14,0.29 -0.1,0.37 0,0.02 0.04,0.03 0.09,0.03 0.15,0 0.42,-0.08 0.43,-0.16 0.03,-0.11 -0.13,-0.23 -0.21,-0.38 -0.03,-0.06 -0.04,-0.16 -0.06,-0.25 0,-0.01 0.05,0 0.05,-0.02 0.03,0 0.07,0 0.1,0 0.11,0 0.21,0 0.32,-0.01 0.06,0 0.13,-0.01 0.19,-0.02 0.04,-0.03 0.05,-0.09 0.06,-0.13 0.02,-0.05 0.08,-0.18 0.12,-0.19 0.04,0 0.07,0.06 0.09,0.11 0.02,0.05 0.07,0.14 0.07,0.14 0.04,0.09 0.09,0.15 0.17,0.13 0.05,-0.02 0.09,-0.1 0.11,-0.2 0.03,-0.15 0.03,-0.34 -0.01,-0.42 -0.05,-0.09 -0.07,-0.17 -0.07,-0.23 0,-0.1 0.03,-0.16 0.05,-0.21 0.02,-0.06 0.04,-0.36 0.15,-0.29 0.08,0.05 -0.01,0.3 -0.02,0.37 0,0.02 0,0.04 0,0.06 0.02,0.13 0.1,0.26 0.25,0.2 0.08,-0.03 0.21,-0.22 0.3,-0.15 0.1,0.06 -0.26,0.16 -0.27,0.24 -0.02,0.11 0.13,0.16 0.08,0.21 -0.05,0.05 -0.09,-0.02 -0.13,0.03 0,0.01 0,0.04 0,0.07 0.02,0.11 0.1,0.29 0,0.32 -0.1,0.03 -0.43,0.16 -0.53,0.2 -0.09,0.04 -0.18,-0.05 -0.13,-0.11 0.03,-0.03 0,-0.14 -0.04,-0.2 0,0 -0.03,-0.04 -0.06,-0.05 -0.03,-0.01 -0.04,0 -0.07,0.02 -0.03,0.02 -0.04,0.06 -0.04,0.06 0,0.02 -0.01,0.05 -0.02,0.08 -0.01,0.09 0.12,0.22 0.1,0.3 -0.01,0.06 -0.17,0.07 -0.25,0.13 -0.03,0.02 -0.07,0.07 -0.11,0.13 -0.08,0.1 -0.17,0.22 -0.26,0.28 -0.11,0.07 -0.29,0.1 -0.38,0.14 -0.03,0.01 -0.06,0.03 -0.06,0.04 0,0.02 0.02,0.04 0.06,0.07 0.04,0.03 0.1,0.07 0.12,0.1 0.12,0.14 0.17,0.35 -0.03,0.44 -0.03,0.01 -0.06,0.02 -0.09,0.02 -0.17,0 -0.35,-0.16 -0.46,-0.09 -0.16,0.1 -0.17,0.3 -0.2,0.57 -0.02,0.23 0.37,0.34 0.66,0.29 0.06,0 0.11,-0.03 0.15,-0.05 0.18,-0.09 0.17,-0.42 0.35,-0.5 0.06,-0.02 0.1,-0.07 0.13,-0.12 0.06,-0.07 0.1,-0.14 0.2,-0.12 0.21,0.05 0.15,-0.14 0.35,-0.14 0.2,0 0.21,0.13 0.46,0.2 0.39,0.1 0.38,0.4 0.46,0.23 0.09,-0.21 0.11,-0.25 -0.22,-0.32 -0.39,-0.09 -0.42,-0.44 -0.19,-0.32 0.3,0.16 0.55,0.14 0.61,0.31 0.06,0.17 0.37,0.12 0.39,0.27 0.04,0.22 0.23,-0.02 0.11,-0.14 -0.15,-0.16 -0.12,-0.2 0,-0.3 0.1,-0.09 0.15,0.05 0.29,-0.14 0.14,-0.18 -0.07,-0.15 -0.08,-0.25 -0.01,-0.1 0.03,-0.65 0.18,-0.55 0.19,0.13 0.37,-0.05 0.3,-0.11 -0.13,-0.12 0.04,-0.35 0.09,-0.32 0.06,0.02 -0.02,0.19 0.06,0.25 0.1,0.09 0.55,-0.15 0.59,0.07 0.03,0.18 -0.35,0.37 -0.43,0.37 -0.19,0 -0.34,0.19 -0.51,0.37 -0.11,0.12 -0.32,0.26 -0.19,0.43 0.14,0.19 0.29,0.15 0.49,0.05 0.23,-0.11 0.35,-0.26 0.46,-0.31 0.16,-0.07 0.27,0.24 0.28,0.45 0,0.07 0,0.13 -0.02,0.16 -0.06,0.12 -0.29,0.15 -0.4,0.24 -0.24,0.19 -0.47,0.21 -0.74,0.26 -0.06,0.01 -0.13,0.02 -0.2,0.04 -0.12,0.02 -0.17,0.06 -0.2,0.13 -0.02,0.04 -0.03,0.09 -0.05,0.15 -0.04,0.12 -0.38,0.11 -0.69,0.08 -0.2,-0.02 -0.38,-0.05 -0.46,-0.06 -0.18,-0.02 0.13,-0.45 -0.17,-0.42 -0.24,0.02 -0.53,0.1 -0.8,0.15 -0.03,0 -0.07,0.01 -0.1,0.02 z m 1.86,4.64 v 0 c 0.21,0.16 0.44,0.22 0.64,0.52 0.16,0.24 0.22,0.33 0.08,0.56 -0.26,0.42 -0.13,0.72 0.35,0.88 0.28,0.09 0.38,0.4 0.6,0.59 0.02,0.04 0.03,0.09 0.09,0.12 h 0.02 c -1.15,0.33 -2.34,0.51 -3.56,0.53 v -3.03 c 0.6,-0.02 1.19,-0.08 1.76,-0.19 z m -1.76,-0.45 v -0.5 c 0,0 0.05,-0.02 0.08,-0.02 0.62,-0.07 0.49,0.28 0.96,0.15 0.13,-0.04 0.32,-0.03 0.42,0.07 0.07,0.04 0.11,0.08 0.1,0.14 -0.51,0.09 -1.03,0.14 -1.55,0.16 z m 9.77,4.25 c -0.97,0.65 -2,1.21 -3.07,1.66 -2.13,0.9 -4.38,1.38 -6.71,1.42 v -3.03 c 1.57,-0.03 3.07,-0.31 4.49,-0.78 0.04,0.03 0.07,0.07 0.12,0.07 0.19,0 0.37,-0.1 0.53,-0.17 0.4,-0.18 0.92,-0.41 1.35,-0.74 v 0 c 1.32,-0.67 2.53,-1.54 3.59,-2.55 l 2.14,2.14 c -0.76,0.73 -1.58,1.39 -2.44,1.98 z m 6.54,-7.94 c -0.45,1.07 -1.01,2.1 -1.66,3.07 -0.59,0.87 -1.25,1.69 -1.98,2.44 l -2.14,-2.14 c 2.52,-2.63 4.09,-6.17 4.17,-10.08 h 3.03 c -0.04,2.32 -0.52,4.58 -1.42,6.71 z M 75.86,52.41 C 75.81,50.21 75.3,48.13 74.4,46.26 v 0 c 0,0 0.03,-0.03 0.05,-0.05 C 74.67,46 73.52,44.56 73.34,44.38 L 73.3,44.34 c -0.48,-0.72 -1.03,-1.39 -1.63,-2.02 l 2.14,-2.14 c 0.73,0.76 1.39,1.58 1.98,2.44 0.65,0.97 1.21,2 1.66,3.07 0.9,2.13 1.38,4.38 1.42,6.71 h -3.03 z"
       id="path31" />
  </g>
  <g
     id="g36"
     transform="translate(-34.03528,-34.02)">
    <path
       class="b"
       d="m 105.27,69.71 h -1.58 l -4.72,-9.66 h -0.05 l 0.03,2.87 v 10.6 h -2.03 v -16.5 h 2.52 l 5.09,10.45 h 0.05 l 5.09,-10.45 h 2.37 v 16.5 h -2.03 v -10.6 l 0.02,-2.87 h -0.05 l -4.72,9.66 z"
       id="path32" />
    <path
       class="b"
       d="m 123.79,71.09 c 0,0.79 0.35,1.09 0.91,1.09 0.27,0 0.59,-0.12 0.77,-0.27 l 0.12,1.51 c -0.32,0.22 -0.92,0.35 -1.36,0.35 -0.94,0 -1.61,-0.4 -1.98,-1.11 -0.15,-0.27 -0.25,-0.59 -0.32,-0.96 -0.49,1.36 -2.03,2.1 -3.58,2.1 -2.17,0 -3.83,-1.26 -3.83,-3.48 0,-2.45 1.98,-4 6.2,-4 0.27,0 0.72,0.03 1.16,0.05 v -1.46 c 0,-1.48 -0.82,-2.37 -2.45,-2.37 -1.63,0 -2.37,0.86 -2.42,2.22 l -1.98,-0.35 c 0.27,-2.3 2.15,-3.53 4.52,-3.53 2.6,0 4.23,1.21 4.23,3.8 v 6.42 z m -1.9,-3.24 c -0.32,-0.02 -0.74,-0.05 -1.16,-0.05 -2.74,0 -4.2,0.74 -4.2,2.42 0,1.21 0.84,2 2.3,2 1.53,0 3.07,-0.96 3.07,-3.34 v -1.04 z"
       id="path33" />
    <path
       class="b"
       d="m 132.02,60.86 c 2.52,0 4.28,1.53 4.52,3.78 l -1.85,0.35 c -0.12,-1.36 -1.06,-2.52 -2.67,-2.52 -2.3,0 -3.46,1.98 -3.46,4.87 0,2.89 1.16,4.87 3.46,4.87 1.61,0 2.55,-1.14 2.67,-2.57 l 1.85,0.35 c -0.35,2.4 -2,3.83 -4.52,3.83 -3.34,0 -5.51,-2.4 -5.51,-6.47 0,-4.07 2.18,-6.47 5.51,-6.47 z"
       id="path34" />
    <path
       class="b"
       d="m 147.17,71.09 c 0,0.79 0.35,1.09 0.91,1.09 0.27,0 0.59,-0.12 0.77,-0.27 l 0.12,1.51 c -0.32,0.22 -0.92,0.35 -1.36,0.35 -0.94,0 -1.61,-0.4 -1.98,-1.11 -0.15,-0.27 -0.25,-0.59 -0.32,-0.96 -0.49,1.36 -2.03,2.1 -3.58,2.1 -2.17,0 -3.83,-1.26 -3.83,-3.48 0,-2.45 1.98,-4 6.2,-4 0.27,0 0.72,0.03 1.16,0.05 v -1.46 c 0,-1.48 -0.82,-2.37 -2.45,-2.37 -1.63,0 -2.37,0.86 -2.42,2.22 l -1.98,-0.35 c 0.27,-2.3 2.15,-3.53 4.52,-3.53 2.6,0 4.23,1.21 4.23,3.8 v 6.42 z m -1.9,-3.24 c -0.32,-0.02 -0.74,-0.05 -1.16,-0.05 -2.74,0 -4.2,0.74 -4.2,2.42 0,1.21 0.84,2 2.3,2 1.53,0 3.07,-0.96 3.07,-3.34 v -1.04 z"
       id="path35" />
    <path
       class="b"
       d="m 158.37,71.17 c -0.59,1.78 -2.03,2.64 -3.91,2.64 -2.03,0 -3.81,-1.26 -3.81,-3.95 v -8.7 h 2.03 v 8.47 c 0,1.58 0.87,2.54 2.35,2.54 1.73,0 3.14,-1.16 3.14,-3.85 v -7.16 h 2.05 v 12.35 h -1.61 l -0.25,-2.35 z"
       id="path36" />
  </g>
  <g
     id="g39"
     transform="translate(-34.03528,-34.02)">
    <path
       class="b"
       d="M 106.65,46.01 V 36.2 h 4.15 v 10.1 c 0,4.72 -2.97,6.7 -6.95,6.7 -3.98,0 -6.95,-1.98 -6.95,-6.7 V 36.2 h 4.18 v 9.81 c 0,2.15 0.79,3.53 2.77,3.53 1.98,0 2.79,-1.38 2.79,-3.53 z"
       id="path37" />
    <path
       class="b"
       d="m 123.37,36.2 h 3.98 v 16.5 h -3.68 L 116.9,42.52 h -0.05 V 52.7 h -3.98 V 36.2 h 3.93 l 6.53,10.13 h 0.05 V 36.2 Z"
       id="path38" />
    <path
       class="b"
       d="M 139.14,46.01 V 36.2 h 4.15 v 10.1 c 0,4.72 -2.97,6.7 -6.95,6.7 -3.98,0 -6.95,-1.98 -6.95,-6.7 V 36.2 h 4.18 v 9.81 c 0,2.15 0.79,3.53 2.77,3.53 1.98,0 2.79,-1.38 2.79,-3.53 z"
       id="path39" />
  </g>
</svg>
